<svg width="373" height="210" viewBox="0 0 373 210" fill="none" xmlns="http://www.w3.org/2000/svg">
<g clip-path="url(#clip0_26369_208191)">
<path d="M0 8C0 3.58172 3.58172 0 8 0H365C369.418 0 373 3.58172 373 8V210H0V8Z" fill="#C0DAF7"/>
<g opacity="0.8" filter="url(#filter0_f_26369_208191)">
<circle cx="313.5" cy="19.5" r="126.5" fill="#96CBFF"/>
</g>
<g filter="url(#filter1_f_26369_208191)">
<circle cx="54.5" cy="37.5" r="184.5" fill="#545FCB"/>
</g>
<g opacity="0.6" filter="url(#filter2_f_26369_208191)">
<circle cx="114.5" cy="220.5" r="62.5" fill="#D2667E"/>
</g>
<g opacity="0.6" filter="url(#filter3_f_26369_208191)">
<circle cx="32.5" cy="223.5" r="94.5" fill="#D0C2FA"/>
</g>
<path opacity="0.2" d="M96 174.313L187 133L277.999 174.313L187 214.383L96 174.313Z" fill="url(#paint0_linear_26369_208191)"/>
<path opacity="0.4" fill-rule="evenodd" clip-rule="evenodd" d="M187.227 133.103L98.7246 174.102L187.904 213.761L205.019 206.449L187 214.383L96 174.313L187 133L187.227 133.103Z" fill="white"/>
<path opacity="0.1" d="M96 174.209V256.925L187 297V214.215L96 174.209Z" fill="white"/>
<path opacity="0.32" d="M278 174.101V256.923L187 296.998V214.107L278 174.101Z" fill="white"/>
<path opacity="0.9" d="M26 194C26.1425 181.821 26.2569 181.677 36 181.5C26.2569 181.323 26.1425 181.179 26 169C25.8575 181.179 25.7431 181.323 16 181.5C25.7431 181.677 25.8575 181.821 26 194Z" fill="#FEFEFE"/>
<path opacity="0.9" d="M44.5 194C44.6496 181.821 44.7697 181.677 55 181.5C44.7697 181.323 44.6496 181.179 44.5 169C44.3504 181.179 44.2303 181.323 34 181.5C44.2303 181.677 44.3504 181.821 44.5 194Z" fill="#FEFEFE"/>
<path opacity="0.9" d="M344.5 194C344.678 179.872 344.821 179.705 357 179.5C344.821 179.295 344.678 179.128 344.5 165C344.322 179.128 344.179 179.295 332 179.5C344.179 179.705 344.322 179.872 344.5 194Z" fill="#FEFEFE"/>
<path opacity="0.9" d="M334.5 69C334.821 43.1796 335.078 42.8751 357 42.5C335.078 42.1249 334.821 41.8204 334.5 16C334.179 41.8204 333.922 42.1249 312 42.5C333.922 42.8751 334.179 43.1796 334.5 69Z" fill="#FEFEFE"/>
<path opacity="0.9" d="M84 54C84.0997 46.2052 84.1798 46.1132 91 46C84.1798 45.8868 84.0997 45.7948 84 38C83.9003 45.7948 83.8202 45.8868 77 46C83.8202 46.1132 83.9003 46.2052 84 54Z" fill="#FEFEFE"/>
<path d="M303.705 163.468L295.154 161.043L297.331 152.422C297.416 152.086 297.412 151.733 297.32 151.399C297.228 151.065 297.051 150.76 296.806 150.515C296.561 150.269 296.256 150.092 295.922 150C295.588 149.908 295.236 149.904 294.9 149.989L286.286 152.166L283.865 143.61C283.771 143.276 283.592 142.972 283.345 142.728C283.099 142.485 282.793 142.309 282.458 142.219C282.123 142.129 281.771 142.128 281.436 142.215C281.1 142.302 280.793 142.475 280.545 142.717L274.177 148.917L267.804 142.715C266.795 141.731 264.867 142.248 264.485 143.604L262.068 152.162L253.453 149.978C253.117 149.894 252.766 149.899 252.432 149.991C252.099 150.084 251.795 150.261 251.551 150.506C251.306 150.75 251.129 151.054 251.037 151.388C250.944 151.722 250.94 152.074 251.024 152.41L253.203 161.031L244.657 163.452C244.323 163.546 244.02 163.725 243.776 163.972C243.533 164.218 243.357 164.524 243.268 164.859C243.178 165.194 243.177 165.547 243.264 165.883C243.351 166.219 243.524 166.526 243.766 166.775L249.964 173.152L243.771 179.527C243.53 179.775 243.357 180.083 243.27 180.418C243.182 180.753 243.184 181.106 243.273 181.441C243.363 181.776 243.538 182.082 243.781 182.329C244.025 182.576 244.328 182.755 244.661 182.849L253.212 185.274L251.035 193.895C250.95 194.231 250.954 194.584 251.046 194.918C251.138 195.253 251.315 195.557 251.56 195.803C251.805 196.048 252.11 196.225 252.444 196.317C252.778 196.41 253.13 196.413 253.466 196.328L262.078 194.151L264.501 202.707C264.595 203.041 264.774 203.345 265.021 203.589C265.267 203.833 265.573 204.008 265.908 204.098C266.243 204.188 266.595 204.19 266.93 204.102C267.266 204.015 267.573 203.842 267.821 203.6L274.189 197.4L280.562 203.602C280.81 203.844 281.117 204.017 281.452 204.105C281.787 204.192 282.139 204.191 282.474 204.101C282.809 204.012 283.114 203.837 283.361 203.593C283.607 203.35 283.786 203.047 283.881 202.713L286.298 194.156L294.913 196.339C295.249 196.424 295.601 196.421 295.935 196.329C296.269 196.237 296.573 196.06 296.818 195.814C297.063 195.569 297.24 195.265 297.332 194.93C297.424 194.596 297.427 194.244 297.342 193.907L295.16 185.285L303.709 182.866C304.043 182.772 304.346 182.593 304.59 182.346C304.833 182.099 305.009 181.793 305.098 181.458C305.188 181.123 305.189 180.77 305.102 180.435C305.015 180.099 304.841 179.792 304.6 179.543L298.402 173.165L304.595 166.79C304.836 166.542 305.009 166.235 305.096 165.899C305.184 165.564 305.182 165.211 305.093 164.876C305.003 164.542 304.828 164.236 304.584 163.989C304.341 163.742 304.038 163.562 303.705 163.468Z" fill="url(#paint1_linear_26369_208191)"/>
<path d="M267.385 180.618C266.48 179.693 265.527 178.795 264.528 177.924C263.529 177.053 262.501 176.254 261.442 175.526L263.113 181.763L260.997 182.33L258.447 172.81L260.191 172.342C260.574 172.564 261.008 172.845 261.492 173.186C261.976 173.528 262.474 173.9 262.984 174.303C263.501 174.695 264.02 175.11 264.54 175.55C265.058 175.981 265.548 176.399 266.01 176.805L264.505 171.187L266.634 170.616L269.185 180.136L267.385 180.618Z" fill="#FCFCFD"/>
<path d="M271.381 179.548L268.83 170.028L275.259 168.305L275.742 170.104L271.456 171.253L271.956 173.121L275.761 172.102L276.233 173.86L272.427 174.88L273.042 177.174L277.644 175.941L278.126 177.74L271.381 179.548Z" fill="#FCFCFD"/>
<path d="M283.822 167.1C284.032 167.446 284.265 167.84 284.521 168.282C284.784 168.712 285.056 169.16 285.337 169.624C285.628 170.086 285.919 170.548 286.209 171.01C286.5 171.472 286.776 171.899 287.038 172.29C287.032 171.791 287.015 171.251 286.987 170.669C286.968 170.085 286.935 169.486 286.887 168.87C286.84 168.255 286.79 167.645 286.736 167.041C286.689 166.425 286.639 165.835 286.585 165.27L288.811 164.674C288.917 166.353 288.98 168.069 288.997 169.821C289.025 171.571 288.993 173.248 288.903 174.853L286.938 175.379C286.382 174.586 285.824 173.749 285.264 172.868C284.702 171.978 284.144 171.087 283.591 170.195C283.558 171.244 283.525 172.294 283.492 173.343C283.457 174.383 283.396 175.386 283.312 176.351L281.347 176.877C280.467 175.533 279.596 174.097 278.735 172.571C277.884 171.042 277.085 169.524 276.337 168.016L278.659 167.394C278.895 167.91 279.147 168.446 279.414 169.003C279.678 169.55 279.949 170.101 280.225 170.655C280.501 171.21 280.772 171.746 281.038 172.263C281.314 172.778 281.578 173.252 281.832 173.685C281.876 173.192 281.909 172.673 281.93 172.127C281.95 171.582 281.966 171.038 281.978 170.495C281.99 169.952 281.992 169.431 281.986 168.932C281.989 168.43 281.992 167.983 281.995 167.59L283.822 167.1Z" fill="#FCFCFD"/>
<g opacity="0.7">
<rect x="317" y="105" width="32" height="32" rx="16" fill="white" fill-opacity="0.2"/>
<path d="M325.667 117C325.667 115.895 326.562 115 327.667 115H338.333C339.438 115 340.333 115.895 340.333 117C340.333 117.368 340.035 117.667 339.667 117.667H337C335.159 117.667 333.667 119.159 333.667 121C333.667 122.841 335.159 124.333 337 124.333H339.667C340.035 124.333 340.333 124.632 340.333 125C340.333 126.105 339.438 127 338.333 127H327.667C326.562 127 325.667 126.105 325.667 125V117Z" fill="white" fill-opacity="0.8"/>
<path fill-rule="evenodd" clip-rule="evenodd" d="M337 119H339.667C340.035 119 340.333 119.298 340.333 119.667V122.333C340.333 122.702 340.035 123 339.667 123H337C335.895 123 335 122.105 335 121C335 119.895 335.895 119 337 119ZM337 121.667C337.368 121.667 337.667 121.368 337.667 121C337.667 120.632 337.368 120.333 337 120.333C336.632 120.333 336.333 120.632 336.333 121C336.333 121.368 336.632 121.667 337 121.667Z" fill="white" fill-opacity="0.8"/>
</g>
<g opacity="0.4">
<rect x="33" y="114" width="32" height="32" rx="16" fill="white" fill-opacity="0.2"/>
<path fill-rule="evenodd" clip-rule="evenodd" d="M43.0741 130.819C43.1809 129.342 44.3425 128.194 45.821 128.1C46.7052 128.044 47.7863 128 49 128C50.2137 128 51.2948 128.044 52.179 128.1C53.6575 128.194 54.8191 129.342 54.9259 130.819C54.969 131.416 55 132.057 55 132.667C55 133.277 54.969 133.918 54.9259 134.514C54.8191 135.992 53.6575 137.139 52.179 137.233C51.2948 137.289 50.2137 137.333 49 137.333C47.7863 137.333 46.7052 137.289 45.821 137.233C44.3425 137.139 43.1809 135.992 43.0741 134.514C43.031 133.918 43 133.277 43 132.667C43 132.057 43.031 131.416 43.0741 130.819ZM50.3333 132C50.3333 132.494 50.0652 132.924 49.6667 133.155V134C49.6667 134.368 49.3682 134.667 49 134.667C48.6318 134.667 48.3333 134.368 48.3333 134V133.155C47.9348 132.924 47.6667 132.494 47.6667 132C47.6667 131.264 48.2636 130.667 49 130.667C49.7364 130.667 50.3333 131.264 50.3333 132Z" fill="white" fill-opacity="0.8"/>
<path fill-rule="evenodd" clip-rule="evenodd" d="M45.6666 126C45.6666 124.159 47.159 122.667 49 122.667C50.8409 122.667 52.3333 124.159 52.3333 126V128.667C52.3333 129.035 52.0348 129.333 51.6666 129.333C51.2984 129.333 51 129.035 51 128.667V126C51 124.895 50.1045 124 49 124C47.8954 124 47 124.895 47 126V128.667C47 129.035 46.7015 129.333 46.3333 129.333C45.9651 129.333 45.6666 129.035 45.6666 128.667V126Z" fill="white" fill-opacity="0.8"/>
</g>
<g opacity="0.5">
<rect x="24" y="24" width="32" height="32" rx="16" fill="white" fill-opacity="0.2"/>
<path d="M36 38C37.1046 38 38 37.1046 38 36C38 34.8954 37.1046 34 36 34C34.8954 34 34 34.8954 34 36C34 37.1046 34.8954 38 36 38Z" fill="white" fill-opacity="0.8"/>
<path d="M44 46C45.1046 46 46 45.1046 46 44C46 42.8954 45.1046 42 44 42C42.8954 42 42 42.8954 42 44C42 45.1046 42.8954 46 44 46Z" fill="white" fill-opacity="0.8"/>
<path fill-rule="evenodd" clip-rule="evenodd" d="M44.4001 34.1333C44.6946 34.3543 44.7543 34.7721 44.5334 35.0667L36.5334 45.7333C36.3125 46.0279 35.8946 46.0876 35.6001 45.8667C35.3055 45.6458 35.2458 45.2279 35.4667 44.9333L43.4667 34.2667C43.6877 33.9721 44.1055 33.9124 44.4001 34.1333Z" fill="white" fill-opacity="0.8"/>
</g>
<path opacity="0.6" d="M121.877 79.7355L91.3768 93.6069L121.877 111.627L152.365 93.6069L121.877 79.7355Z" fill="url(#paint2_linear_26369_208191)"/>
<path opacity="0.3" d="M91.377 93.6062L121.877 111.626V43.0001L91.377 93.6062Z" fill="white"/>
<path opacity="0.6" d="M121.897 43V111.626L152.385 93.6061L121.897 43Z" fill="white"/>
<path opacity="0.3" d="M91.3768 99.3871L121.877 142.356V117.407L91.3768 99.3871Z" fill="white"/>
<path opacity="0.6" d="M121.897 117.405V142.354L152.409 99.3851L121.897 117.405Z" fill="white"/>
<g opacity="0.9">
<path d="M186.494 77.9362L186.494 74.1019C186.494 73.9818 186.53 73.8645 186.596 73.7647C186.663 73.6649 186.757 73.587 186.868 73.5411C186.979 73.4951 187.101 73.483 187.219 73.5064C187.337 73.5298 187.445 73.5875 187.53 73.6724L194.114 80.2576C194.342 80.4851 194.469 80.7936 194.469 81.1153C194.469 81.437 194.342 81.7455 194.114 81.973L187.53 88.5577C187.445 88.6424 187.337 88.7002 187.219 88.7236C187.102 88.747 186.98 88.735 186.869 88.6892C186.758 88.6434 186.663 88.5657 186.597 88.4661C186.53 88.3665 186.494 88.2493 186.494 88.1294L186.494 84.2957L179.229 84.2957C178.907 84.2957 178.599 84.1679 178.371 83.9404C178.144 83.7129 178.016 83.4043 178.016 83.0825L178.016 79.15C178.016 78.8282 178.144 78.5196 178.371 78.2921C178.599 78.0646 178.907 77.9368 179.229 77.9368L186.494 77.9368L186.494 77.9362Z" fill="#F4F9FE"/>
<path d="M186.493 106.46L186.493 110.294C186.493 110.414 186.458 110.531 186.391 110.631C186.325 110.731 186.23 110.809 186.119 110.855C186.008 110.901 185.886 110.913 185.769 110.889C185.651 110.866 185.543 110.808 185.458 110.723L178.873 104.138C178.646 103.911 178.518 103.602 178.518 103.28C178.518 102.959 178.646 102.65 178.873 102.423L185.458 95.8382C185.543 95.7534 185.651 95.6956 185.768 95.6722C185.886 95.6488 186.008 95.6608 186.119 95.7066C186.229 95.7524 186.324 95.8301 186.391 95.9297C186.458 96.0293 186.493 96.1465 186.493 96.2664L186.493 100.1L193.759 100.1C194.08 100.1 194.389 100.228 194.616 100.455C194.844 100.683 194.972 100.992 194.972 101.313L194.972 105.246C194.972 105.568 194.844 105.876 194.616 106.104C194.389 106.331 194.08 106.459 193.759 106.459L186.493 106.459L186.493 106.46Z" fill="#F4F9FE"/>
</g>
<rect x="221.752" y="59" width="68.2421" height="68.2421" rx="8" fill="#B9CBF0"/>
<rect opacity="0.94" x="229.334" y="66.5824" width="53.0772" height="53.0772" rx="8" fill="#F4F9FE"/>
<circle opacity="0.88" cx="270.09" cy="78.9049" r="3.79123" fill="#AABDEC"/>
<path opacity="0.52" d="M239.832 77.0814L267.829 109.744H239.832V77.0814Z" fill="#95ACE7"/>
<path opacity="0.52" d="M251.497 77.0814L271.328 99.2455H251.497V77.0814Z" fill="#95ACE7"/>
</g>
<defs>
<filter id="filter0_f_26369_208191" x="67" y="-227" width="493" height="493" filterUnits="userSpaceOnUse" color-interpolation-filters="sRGB">
<feFlood flood-opacity="0" result="BackgroundImageFix"/>
<feBlend mode="normal" in="SourceGraphic" in2="BackgroundImageFix" result="shape"/>
<feGaussianBlur stdDeviation="60" result="effect1_foregroundBlur_26369_208191"/>
</filter>
<filter id="filter1_f_26369_208191" x="-290" y="-307" width="689" height="689" filterUnits="userSpaceOnUse" color-interpolation-filters="sRGB">
<feFlood flood-opacity="0" result="BackgroundImageFix"/>
<feBlend mode="normal" in="SourceGraphic" in2="BackgroundImageFix" result="shape"/>
<feGaussianBlur stdDeviation="80" result="effect1_foregroundBlur_26369_208191"/>
</filter>
<filter id="filter2_f_26369_208191" x="-68" y="38" width="365" height="365" filterUnits="userSpaceOnUse" color-interpolation-filters="sRGB">
<feFlood flood-opacity="0" result="BackgroundImageFix"/>
<feBlend mode="normal" in="SourceGraphic" in2="BackgroundImageFix" result="shape"/>
<feGaussianBlur stdDeviation="60" result="effect1_foregroundBlur_26369_208191"/>
</filter>
<filter id="filter3_f_26369_208191" x="-182" y="9" width="429" height="429" filterUnits="userSpaceOnUse" color-interpolation-filters="sRGB">
<feFlood flood-opacity="0" result="BackgroundImageFix"/>
<feBlend mode="normal" in="SourceGraphic" in2="BackgroundImageFix" result="shape"/>
<feGaussianBlur stdDeviation="60" result="effect1_foregroundBlur_26369_208191"/>
</filter>
<linearGradient id="paint0_linear_26369_208191" x1="278.009" y1="173.337" x2="95.9975" y2="173.337" gradientUnits="userSpaceOnUse">
<stop stop-color="white"/>
<stop offset="1" stop-color="white" stop-opacity="0"/>
</linearGradient>
<linearGradient id="paint1_linear_26369_208191" x1="265.91" y1="142.282" x2="282.474" y2="204.101" gradientUnits="userSpaceOnUse">
<stop stop-color="#6979D4"/>
<stop offset="1" stop-color="#95B9F2"/>
</linearGradient>
<linearGradient id="paint2_linear_26369_208191" x1="152.408" y1="93.4513" x2="91.0903" y2="94.2275" gradientUnits="userSpaceOnUse">
<stop stop-color="white"/>
<stop offset="1" stop-color="white" stop-opacity="0.6"/>
</linearGradient>
<clipPath id="clip0_26369_208191">
<path d="M0 8C0 3.58172 3.58172 0 8 0H365C369.418 0 373 3.58172 373 8V210H0V8Z" fill="white"/>
</clipPath>
</defs>
</svg>
